<svg xmlns="http://www.w3.org/2000/svg" version="1.1" xmlns:xlink="http://www.w3.org/1999/xlink" xmlns:svgjs="http://svgjs.com/svgjs" width="512" height="512" x="0" y="0" viewBox="0 0 48 48" style="enable-background:new 0 0 512 512" xml:space="preserve" class=""><g><g xmlns="http://www.w3.org/2000/svg" fill="rgb(0,0,0)"><path d="m6 42h16a1 1 0 0 0 1-1v-15a1 1 0 0 0 -1-1h-16a1 1 0 0 0 -1 1v15a1 1 0 0 0 1 1zm1-15h14v13h-14z" fill="#000000" data-original="#000000" class=""></path><path d="m6 23h16a1 1 0 0 0 1-1v-15a1 1 0 0 0 -1-1h-16a1 1 0 0 0 -1 1v15a1 1 0 0 0 1 1zm1-15h14v13h-14z" fill="#000000" data-original="#000000" class=""></path><path d="m42 6h-16a1 1 0 0 0 -1 1v15a1 1 0 0 0 1 1h16a1 1 0 0 0 1-1v-15a1 1 0 0 0 -1-1zm-1 15h-14v-13h14z" fill="#000000" data-original="#000000" class=""></path><path d="m42 25h-16a1 1 0 0 0 -1 1v15a1 1 0 0 0 1 1h16a1 1 0 0 0 1-1v-15a1 1 0 0 0 -1-1zm-1 15h-14v-13h14z" fill="#000000" data-original="#000000" class=""></path></g></g></svg>