<svg xmlns="http://www.w3.org/2000/svg" version="1.1" xmlns:xlink="http://www.w3.org/1999/xlink" xmlns:svgjs="http://svgjs.com/svgjs" width="512" height="512" x="0" y="0" viewBox="0 0 512 512" style="enable-background:new 0 0 512 512" xml:space="preserve" class=""><g><path xmlns="http://www.w3.org/2000/svg" d="m478 23.5h-21.667969c-4.433593-13.621094-17.246093-23.5-32.332031-23.5h-336c-15.085938 0-27.898438 9.878906-32.332031 23.5h-21.667969c-18.746094 0-34 15.253906-34 34v185c0 18.746094 15.253906 34 34 34h21.667969c4.433593 13.621094 17.246093 23.5 32.332031 23.5h121.332031c5.523438 0 10-4.476562 10-10s-4.476562-10-10-10h-121.332031c-7.71875 0-14-6.28125-14-14v-232c0-7.71875 6.28125-14 14-14h336c7.71875 0 14 6.28125 14 14v232c0 7.71875-6.28125 14-14 14h-120.332031c-5.523438 0-10 4.476562-10 10s4.476562 10 10 10h120.332031c15.085938 0 27.898438-9.878906 32.332031-23.5h21.667969c18.746094 0 34-15.253906 34-34v-185c0-18.746094-15.253906-34-34-34zm-458 219v-185c0-7.71875 6.28125-14 14-14h20v213h-20c-7.71875 0-14-6.28125-14-14zm472 0c0 7.71875-6.28125 14-14 14h-20v-213h20c7.71875 0 14 6.28125 14 14zm0 0" fill="#000000" data-original="#000000"></path><path xmlns="http://www.w3.org/2000/svg" d="m383.492188 178.636719c1.953124 1.953125 4.511718 2.925781 7.070312 2.925781s5.117188-.972656 7.070312-2.925781l21.4375-21.4375c3.90625-3.90625 3.90625-10.238281 0-14.144531l-21.4375-21.4375c-3.90625-3.902344-10.234374-3.902344-14.140624 0-3.90625 3.90625-3.90625 10.238281 0 14.144531l14.363281 14.363281-14.363281 14.367188c-3.90625 3.90625-3.90625 10.238281 0 14.144531zm0 0" fill="#000000" data-original="#000000"></path><path xmlns="http://www.w3.org/2000/svg" d="m128.507812 121.617188c-3.90625-3.902344-10.234374-3.902344-14.144531 0l-21.433593 21.4375c-3.90625 3.90625-3.90625 10.238281 0 14.144531l21.433593 21.4375c1.953125 1.953125 4.515625 2.929687 7.074219 2.929687s5.117188-.976562 7.070312-2.929687c3.902344-3.90625 3.902344-10.238281 0-14.144531l-14.367187-14.363282 14.367187-14.367187c3.90625-3.90625 3.90625-10.238281 0-14.144531zm0 0" fill="#000000" data-original="#000000"></path><path xmlns="http://www.w3.org/2000/svg" d="m131.378906 338c-19.851562 0-36 16.148438-36 36s16.148438 36 36 36c19.851563 0 36-16.148438 36-36s-16.148437-36-36-36zm0 52c-8.820312 0-16-7.179688-16-16s7.179688-16 16-16c8.824219 0 16 7.179688 16 16s-7.175781 16-16 16zm0 0" fill="#000000" data-original="#000000"></path><path xmlns="http://www.w3.org/2000/svg" d="m256 338c-19.851562 0-36 16.148438-36 36s16.148438 36 36 36 36-16.148438 36-36-16.148438-36-36-36zm0 52c-8.820312 0-16-7.179688-16-16s7.179688-16 16-16 16 7.179688 16 16-7.179688 16-16 16zm0 0" fill="#000000" data-original="#000000"></path><path xmlns="http://www.w3.org/2000/svg" d="m380.621094 338c-19.851563 0-36 16.148438-36 36s16.148437 36 36 36c19.851562 0 36-16.148438 36-36s-16.148438-36-36-36zm0 52c-8.824219 0-16-7.179688-16-16s7.175781-16 16-16c8.820312 0 16 7.179688 16 16s-7.179688 16-16 16zm0 0" fill="#000000" data-original="#000000"></path><path xmlns="http://www.w3.org/2000/svg" d="m263.070312 297.070312c1.859376-1.859374 2.929688-4.441406 2.929688-7.070312s-1.070312-5.210938-2.929688-7.070312c-1.859374-1.859376-4.441406-2.929688-7.070312-2.929688-2.640625 0-5.210938 1.070312-7.070312 2.929688-1.859376 1.859374-2.929688 4.441406-2.929688 7.070312s1.070312 5.210938 2.929688 7.070312c1.859374 1.859376 4.441406 2.929688 7.070312 2.929688s5.210938-1.070312 7.070312-2.929688zm0 0" fill="#000000" data-original="#000000"></path></g></svg>