<svg xmlns="http://www.w3.org/2000/svg" version="1.1" xmlns:xlink="http://www.w3.org/1999/xlink" xmlns:svgjs="http://svgjs.com/svgjs" width="24" height="24" x="0" y="0" viewBox="0 0 48 48" style="enable-background:new 0 0 24 24" xml:space="preserve" class=""><g><g xmlns="http://www.w3.org/2000/svg" fill="rgb(0,0,0)"><path d="m34 41a2 2 0 0 0 2-2v-30a2 2 0 0 0 -2-2h-20a2 2 0 0 0 -2 2v30a2 2 0 0 0 2 2zm-20-32h20v30h-20z" fill="#000000" data-original="#000000" class=""></path><path d="m43 13a1 1 0 0 0 -1 1v20a1 1 0 0 0 2 0v-20a1 1 0 0 0 -1-1z" fill="#000000" data-original="#000000" class=""></path><path d="m40 37v-26a1 1 0 0 0 -2 0v26a1 1 0 0 0 2 0z" fill="#000000" data-original="#000000" class=""></path><path d="m6 34v-20a1 1 0 0 0 -2 0v20a1 1 0 0 0 2 0z" fill="#000000" data-original="#000000" class=""></path><path d="m10 37v-26a1 1 0 0 0 -2 0v26a1 1 0 0 0 2 0z" fill="#000000" data-original="#000000" class=""></path></g></g></svg>